<svg width="406" height="399" xmlns="http://www.w3.org/2000/svg" xmlns:xlink="http://www.w3.org/1999/xlink" xml:space="preserve" overflow="hidden"><defs><clipPath id="clip0"><rect x="503" y="96" width="406" height="399"/></clipPath></defs><g clip-path="url(#clip0)" transform="translate(-503 -96)"><path d="M604.737 188.679 589.642 181.563 579.97 188.679 543.316 188.679 543.316 129.884 594.167 129.884 594.167 124.102 594.141 124.102 594.167 124.078 579.043 116.948 569.318 124.102 543.316 124.102 543.316 73.9695 526.869 73.9695 526.869 188.679 472.836 188.679 472.836 194.465 526.869 194.465 543.316 194.465 604.77 194.465 604.77 188.679Z" fill="#9D0A12" transform="matrix(1 0 0 1.00071 504.127 96)"/><path d="M857.97 201.232 874.417 201.232 874.417 134.401C882.079 143.555 881.846 146.802 885.511 150.083 888.593 152.83 892.627 152.688 894.772 150.182 902.794 140.833 880.787 130.514 874.417 127.783L874.417 119.761 894.371 119.761 894.371 113.98 874.417 113.98 874.417 92.3887C881.854 90.4898 888.749 88.1155 893.467 85.1673L879.36 74.0806C879.36 74.0806 861.283 87.0957 834.545 93.8459L834.545 98.7887C834.545 98.7887 845.241 97.9293 857.97 95.7912L857.97 113.98 834.545 113.98 834.545 119.761 854.364 119.761C853.07 124.519 844.422 155.008 831.941 173.141L835.565 176.03C835.565 176.03 848.688 163.023 857.972 146.155L857.972 201.232Z" fill="#9D0A12" transform="matrix(1 0 0 1.00071 504.127 96)"/><path d="M965.577 160.611 965.577 154.824 945.263 154.824 945.263 74.0989 928.816 74.0989 928.816 154.824 883.701 154.824 883.701 160.611 928.816 160.611 928.816 201.227 945.263 201.227 945.263 160.611Z" fill="#9D0A12" transform="matrix(1 0 0 1.00071 504.127 96)"/><path d="M914.173 110.027C917.531 112.431 921.52 111.864 923.382 109.159 931.547 97.3835 899.072 88.4925 899.072 88.4925L896.91 91.3971C910.164 102.9 909.574 106.695 914.173 110.027" fill="#9D0A12" transform="matrix(1 0 0 1.00071 504.127 96)"/><path d="M900.321 119.602 897.885 122.277C909.858 135.101 908.879 138.82 913.104 142.605 916.192 145.356 920.209 145.207 922.362 142.701 931.706 131.849 900.321 119.602 900.321 119.602" fill="#9D0A12" transform="matrix(1 0 0 1.00071 504.127 96)"/><path d="M1258.9 118.968 1311.94 118.968 1311.94 113.178 1311.83 113.178 1311.94 113.133 1296.82 105.995 1287.07 113.178 1254.23 113.178C1257.12 94.4944 1256.45 78.9741 1256.11 74.0187L1236.6 74.0187C1237.92 88.7006 1237.63 101.682 1236.2 113.178L1183.8 113.178 1183.8 118.968 1235.37 118.968C1227.43 166.955 1198.6 187.035 1183.73 194.465L1183.73 201.202C1229.29 189.715 1246.6 152.087 1252.94 120.433 1256.3 176.754 1299.41 201.195 1299.41 201.195 1303.75 187.928 1316.94 190.137 1316.94 190.137L1316.94 185.346C1275.6 170.938 1260.52 124.379 1258.9 118.968" fill="#9D0A12" transform="matrix(1 0 0 1.00071 504.127 96)"/><path d="M1486.94 102.418 1471.81 95.2708 1462.19 102.359 1446.5 102.359C1450.67 98.4019 1458.6 90.2535 1467.14 78.3819L1447.63 72.238C1447.63 72.238 1442.4 93.3804 1436.49 102.359L1396.24 102.359C1397.06 102.013 1397.79 101.503 1398.39 100.831 1408.81 89.1311 1372.38 74.2367 1372.38 74.2367L1369.67 77.1174C1383.11 91.0004 1383.28 96.5733 1388.02 100.669 1388.92 101.441 1389.87 101.996 1390.86 102.359L1368.12 102.359C1367.3 99.5862 1366.08 96.3103 1366.08 96.3103L1361.75 96.3103 1361.62 97.2035C1359.19 110.528 1352.12 113.438 1352.12 122.134 1352.12 126.224 1355.01 131.104 1360.23 131.104 1367.53 131.104 1370.03 124.546 1370.03 115.521 1370.03 113.71 1369.68 110.721 1369.31 108.145L1468 108.145 1463.52 127.635 1469.95 127.635 1486.8 108.145 1486.83 108.145 1486.83 108.12 1486.96 107.974 1486.96 102.418Z" fill="#9D0A12" transform="matrix(1 0 0 1.00071 504.127 96)"/><path d="M1415.52 96.4819C1418.72 99.3612 1422.92 99.191 1425.15 96.5944 1434.86 85.2812 1400.9 70.7132 1400.9 70.7132L1398.35 73.5011C1410.82 86.8257 1411.11 92.5533 1415.52 96.4819" fill="#9D0A12" transform="matrix(1 0 0 1.00071 504.127 96)"/><path d="M1431.89 181.133 1431.89 155.852 1481.56 155.852 1481.56 150.126 1481.67 150.126 1466.55 142.996 1456.91 150.084 1431.89 150.084 1431.89 141.293 1451.95 126.19 1451.95 120.401 1381.93 120.401 1381.93 126.19 1433.62 126.19 1415.63 141.277 1415.5 141.277 1415.5 150.085 1355.23 150.085 1355.23 155.855 1415.5 155.855 1415.5 181.136C1415.5 183.782 1413.65 183.962 1409.85 183.962 1406.45 183.962 1390.34 182.901 1386.95 182.689L1386.95 187.456C1409.89 189.969 1406.77 201.323 1406.77 201.323 1431.71 198.13 1431.89 181.133 1431.89 181.133" fill="#9D0A12" transform="matrix(1 0 0 1.00071 504.127 96)"/><path d="M1061.4 132.279 1061.4 126.081C1056.55 128.085 1051.68 129.888 1046.93 131.516L1046.93 106.491 1061.4 106.491 1061.4 100.697 1046.93 100.697 1046.93 74.0103 1030.5 74.0103 1030.5 100.697 1011.51 100.697 1011.51 106.491 1030.5 106.491 1030.5 136.667C1017.19 140.464 1007.6 142.344 1007.6 142.344L1012.36 157.113C1018.95 154.416 1025 151.697 1030.5 149.09L1030.5 180.518 1030.44 179.095C1030.44 183.921 1030.08 185.623 1020.86 185.623 1016.69 185.623 1012.83 185.247 1012.83 185.247L1012.83 188.937C1024.93 191.203 1026.06 201.184 1026.06 201.184L1030.5 201.184 1030.5 201.23 1046.93 201.23 1046.93 140.715C1053.63 137.076 1058.55 134.083 1061.4 132.279" fill="#9D0A12" transform="matrix(1 0 0 1.00071 504.127 96)"/><path d="M1143.52 184.651C1128.43 181.975 1116.45 176.629 1106.99 170.295 1124.18 152.512 1133.08 133.402 1134.13 131.077L1134.24 131.077 1134.24 125.287 1103.69 125.287 1103.69 106.495 1142.19 106.495 1142.19 100.702 1142.23 100.702 1127.1 93.5829 1117.41 100.702 1103.68 100.702 1103.68 74.0103 1087.25 74.0103 1087.25 100.702 1065.04 100.702 1065.04 106.495 1087.25 106.495 1087.25 125.287 1065.07 125.287 1065.07 131.077 1067.64 131.077C1071.49 146.968 1078.38 159.508 1086.25 169.309 1067.89 187.712 1049.22 195.926 1049.22 195.926L1049.22 201.151C1068.19 198.756 1083.85 190.324 1096.36 180.092 1113.94 196.2 1132.19 201.351 1132.19 201.351 1134.85 191.483 1141.84 189.145 1143.52 188.72L1143.52 184.651ZM1075.09 131.077 1112.34 131.077C1107.55 142.352 1101.28 152.011 1094.55 160.176 1081.57 147.437 1076.24 134.242 1075.09 131.077" fill="#9D0A12" transform="matrix(1 0 0 1.00071 504.127 96)"/><path d="M769.943 109.642 766.569 109.642 753.486 109.642 714.576 109.642 708.002 109.642C710.501 106.37 713.081 102.751 715.582 98.7971L781.556 98.7971 781.556 93.0118 781.499 93.0118 781.565 92.9823 766.451 85.8565 756.751 92.9823 756.828 93.0118 719.039 93.0118C721.602 88.4587 723.999 83.5947 725.989 78.4509L708.19 73.9259C708.19 73.9259 703.737 102.487 688.191 124.885L691.68 127.774C691.68 127.774 694.286 125.445 698.135 121.329L698.135 140.473 685.06 140.473 685.06 146.267 698.135 146.267 698.135 171.211 698.135 176.989 698.135 180.044 714.576 180.044 714.576 176.989 753.502 176.989C753.367 182.558 752.274 185.997 745.543 185.997L721.079 185.997 721.079 189.608C721.079 189.608 741.445 191.288 741.445 201.17 741.445 201.17 769.742 200.9 769.873 176.989L781.563 176.989 781.563 171.211 769.942 171.211 769.942 146.267 781.563 146.267 781.563 140.473 769.942 140.473 769.942 109.642ZM753.486 171.214 745.21 171.214C745.252 171.173 745.302 171.138 745.345 171.093 754.706 160.231 723.308 147.992 723.308 147.992L720.872 150.659C732.843 163.478 731.859 167.202 736.094 170.979 736.19 171.07 736.302 171.132 736.399 171.212L714.576 171.212 714.576 146.268 753.486 146.268 753.486 171.214ZM753.486 140.474 745.027 140.474C745.131 140.374 745.248 140.286 745.345 140.173 754.706 129.31 723.308 117.09 723.308 117.09L720.872 119.744C732.843 132.559 731.859 136.292 736.094 140.065 736.27 140.222 736.458 140.331 736.638 140.474L714.576 140.474 714.576 115.42 753.486 115.42 753.486 140.474Z" fill="#9D0A12" transform="matrix(1 0 0 1.00071 504.127 96)"/><path d="M676.085 97.0614C679.174 99.8127 683.206 99.6579 685.339 97.1655 694.698 86.2954 663.312 74.0609 663.312 74.0609L660.87 76.7348C672.833 89.5643 671.865 93.272 676.085 97.0614" fill="#9D0A12" transform="matrix(1 0 0 1.00071 504.127 96)"/><path d="M665.244 125.429C668.337 128.193 672.353 128.036 674.502 125.538 683.858 114.668 652.475 102.458 652.475 102.458L650.017 105.11C662.005 117.932 661.02 121.647 665.244 125.429" fill="#9D0A12" transform="matrix(1 0 0 1.00071 504.127 96)"/><path d="M691.629 92.9274C687.045 104.824 672.837 140.882 667.167 147.068 661.845 152.841 651.797 149.828 651.797 149.828L651.797 155.075C651.797 155.075 665.267 158.113 665.267 185.697 665.267 194.58 665.358 201.175 665.358 201.175L676.203 201.113C676.203 201.113 676.567 168.194 677.106 157.186 677.603 146.876 694.683 100.311 697.417 92.926L691.629 92.926Z" fill="#9D0A12" transform="matrix(1 0 0 1.00071 504.127 96)"/><path d="M493.988 274.819C489.918 273.62 487.192 271.555 487.192 267.464 487.192 261.702 493.036 257.771 497.661 257.771 506.906 257.771 511.603 262.345 513.059 270.101L519.985 270.101C519.985 258.18 509.921 251.87 498.062 251.87 487.756 251.87 477.198 257.153 477.198 268.675 477.198 274.589 480.003 280.587 489.829 283.15 497.748 285.303 510.642 287.389 511.582 295.509 512.202 300.809 508.351 305.745 499.513 305.745 492.237 305.745 482.381 302.877 481.36 291.298L475.036 291.298C475.274 305.45 485.836 311.694 498.875 311.694 510.142 311.694 521.584 306.565 521.584 293.782 521.584 279.621 504.407 277.893 493.988 274.819" fill="#9D0A12" transform="matrix(1 0 0 1.00071 504.127 96)"/><path d="M1359.7 283.479C1356.71 282.674 1353.91 281.127 1354.53 278.042 1355.07 275.356 1358.5 273.771 1362.17 273.771 1367.25 273.771 1372.16 275.491 1373.22 281.141L1378.44 281.141C1378.44 272.457 1371.1 267.836 1362.46 267.836 1354.95 267.836 1347.24 271.69 1347.24 280.086 1347.24 284.229 1348.81 288.693 1356.95 290.979 1367.58 293.993 1372.23 296.242 1372.23 300.522 1372.23 303.217 1369.26 305.544 1363.52 305.544 1359.14 305.544 1351.6 305.031 1350.87 296.594L1345.68 296.594C1345.86 306.896 1353.55 311.453 1363.05 311.453 1371.26 311.453 1379.61 307.717 1379.61 298.387 1379.61 292.06 1375.08 287.618 1359.7 283.479" fill="#9D0A12" transform="matrix(1 0 0 1.00071 504.127 96)"/><path d="M555.489 267.874C550.053 267.874 545.332 270.676 543.094 274.429L542.932 274.429 542.932 253.232 533.816 253.232 533.816 310.336 542.932 310.336 542.932 285.949C542.932 279.867 546.851 273.751 552.929 273.751 558.38 273.751 560.767 277.869 561.001 284.347L561.001 310.336 570.13 310.336 570.13 281.951C570.131 272.588 564.53 267.874 555.489 267.874" fill="#9D0A12" transform="matrix(1 0 0 1.00071 504.127 96)"/><path d="M1022.59 267.874C1017.16 267.874 1012.43 270.676 1010.19 274.429L1010.03 274.429 1010.03 253.232 1000.92 253.232 1000.92 310.336 1010.03 310.336 1010.03 285.949C1010.03 279.867 1013.96 273.751 1020.03 273.751 1025.46 273.751 1027.86 277.869 1028.11 284.347L1028.11 310.336 1037.22 310.336 1037.22 281.951C1037.22 272.588 1031.62 267.874 1022.59 267.874" fill="#9D0A12" transform="matrix(1 0 0 1.00071 504.127 96)"/><path d="M758.085 267.874C752.643 267.874 747.912 270.676 745.678 274.429L745.524 274.429 745.524 253.232 736.403 253.232 736.403 310.336 745.524 310.336 745.524 285.949C745.524 279.867 749.437 273.751 755.506 273.751 760.968 273.751 763.355 277.869 763.589 284.347L763.589 310.336 772.716 310.336 772.716 281.951C772.714 272.588 767.112 267.874 758.085 267.874" fill="#9D0A12" transform="matrix(1 0 0 1.00071 504.127 96)"/><path d="M655.452 267.874C650.021 267.874 645.375 270.676 642.583 275.229L642.42 275.068 642.42 268.977 633.783 268.977 633.783 310.336 642.899 310.336 642.899 285.949C642.899 279.867 646.814 273.751 652.892 273.751 658.335 273.751 660.735 277.869 660.977 284.347L660.977 310.336 670.093 310.336 670.093 281.951C670.094 272.588 664.493 267.874 655.452 267.874" fill="#9D0A12" transform="matrix(1 0 0 1.00071 504.127 96)"/><path d="M1164.36 267.874C1158.92 267.874 1154.29 270.676 1151.47 275.229L1151.32 275.068 1151.32 268.977 1142.69 268.977 1142.69 310.336 1151.79 310.336 1151.79 285.949C1151.79 279.867 1155.72 273.751 1161.79 273.751 1167.23 273.751 1169.63 277.869 1169.87 284.347L1169.87 310.336 1178.99 310.336 1178.99 281.951C1178.99 272.588 1173.4 267.874 1164.36 267.874" fill="#9D0A12" transform="matrix(1 0 0 1.00071 504.127 96)"/><path d="M713.604 274.671 713.437 274.671C711.117 269.953 706.395 267.874 701.194 267.874 689.443 267.874 682.481 277.476 682.481 288.599 682.481 300.425 687.927 310.335 701.035 310.335 706.16 310.335 710.872 307.612 713.435 303.046L713.603 303.046 713.603 309.378C713.603 316.175 710.33 320.845 702.953 320.845 697.528 320.845 692.259 319.127 690.899 313.847L683.919 313.847C684.796 323.534 694.076 326.729 702.404 326.729 715.516 326.729 722.709 320.661 722.709 308.174L722.709 268.981 713.604 268.981 713.604 274.671ZM702.478 304.462C694.885 304.462 691.601 296.19 691.601 289.46 691.601 282.589 694.347 273.743 702.429 273.743 710.355 273.743 713.603 281.625 713.603 288.742 713.603 295.86 710.556 304.462 702.478 304.462" fill="#9D0A12" transform="matrix(1 0 0 1.00071 504.127 96)"/><path d="M836.915 268.981 846.03 268.981 846.03 310.329 836.915 310.329Z" fill="#9D0A12" transform="matrix(1 0 0 1.00071 504.127 96)"/><path d="M836.915 253.232 846.03 253.232 846.03 261.87 836.915 261.87Z" fill="#9D0A12" transform="matrix(1 0 0 1.00071 504.127 96)"/><path d="M902.819 253.232 856.585 253.232 856.585 259.115 874.659 259.115 874.659 310.329 884.667 310.329 884.667 259.115 902.819 259.115Z" fill="#9D0A12" transform="matrix(1 0 0 1.00071 504.127 96)"/><path d="M922.08 267.88C909.764 267.88 902.085 277.951 902.085 289.707 902.085 302.496 909.288 311.454 922.33 311.454 931.28 311.454 939.119 306.405 941.031 297.38L934.393 297.38C932.791 301.932 928.058 305.737 922.33 305.586 913.514 305.33 910.575 297.254 910.927 290.834L941.792 290.834C943.326 278.432 935.12 267.88 922.08 267.88M911.208 284.932C911.45 278.761 915.774 273.57 922.08 273.778 928.799 274.006 932.079 279.173 932.481 284.932L911.208 284.932Z" fill="#9D0A12" transform="matrix(1 0 0 1.00071 504.127 96)"/><path d="M1282.18 267.88C1269.85 267.88 1262.18 277.951 1262.18 289.707 1262.18 302.496 1269.38 311.454 1282.41 311.454 1291.36 311.454 1299.19 306.405 1301.11 297.38L1294.48 297.38C1292.88 301.932 1288.15 305.737 1282.41 305.586 1273.6 305.33 1270.66 297.254 1271.02 290.834L1301.89 290.834C1303.41 278.432 1295.21 267.88 1282.18 267.88M1271.29 284.932C1271.54 278.761 1275.85 273.57 1282.18 273.778 1288.88 274.006 1292.17 279.173 1292.58 284.932L1271.29 284.932Z" fill="#9D0A12" transform="matrix(1 0 0 1.00071 504.127 96)"/><path d="M971.719 273.835C976.138 273.509 981.563 275.187 983.609 282.78L990.371 282.826C989.495 272.672 981.338 267.873 971.745 267.873 958.146 267.873 951.358 277.633 951.358 290.107 951.358 302.25 958.462 311.453 971.43 311.453 982.056 311.453 988.71 305.626 990.372 294.824L983.486 294.824C982.618 300.819 978.409 306.045 971.431 305.555 963.533 305 960.47 296.978 960.47 290.108 960.467 277.635 967.01 274.184 971.719 273.835" fill="#9D0A12" transform="matrix(1 0 0 1.00071 504.127 96)"/><path d="M1117.85 286.495C1117.85 294.182 1117.37 305.813 1104.41 305.813 1091.46 305.813 1090.98 294.18 1090.98 286.495L1090.98 253.232 1080.99 253.232 1080.99 289.794C1080.99 304.429 1090.34 311.695 1104.41 311.695 1118.49 311.695 1127.85 304.429 1127.85 289.794L1127.85 253.232 1117.85 253.232 1117.85 286.495Z" fill="#9D0A12" transform="matrix(1 0 0 1.00071 504.127 96)"/><path d="M1193.82 253.232 1202.94 253.232 1202.94 261.87 1193.82 261.87Z" fill="#9D0A12" transform="matrix(1 0 0 1.00071 504.127 96)"/><path d="M1193.82 268.981 1202.94 268.981 1202.94 310.329 1193.82 310.329Z" fill="#9D0A12" transform="matrix(1 0 0 1.00071 504.127 96)"/><path d="M1236.22 300.739 1236.06 300.739 1223.49 268.976 1213.56 268.976 1228.62 310.335 1239.29 310.335 1253.64 268.976 1246.67 268.976Z" fill="#9D0A12" transform="matrix(1 0 0 1.00071 504.127 96)"/><path d="M1323.35 276.992 1323.19 276.992 1323.19 268.976 1314.63 268.976 1314.63 310.335 1323.76 310.335 1323.76 290.657C1323.76 281.456 1328.78 274.591 1334.94 274.591 1336.22 274.591 1337.59 274.737 1338.86 274.975L1338.86 268.859C1337.99 268.781 1337.59 268.634 1335.43 268.634 1329.91 268.635 1324.39 272.588 1323.35 276.992" fill="#9D0A12" transform="matrix(1 0 0 1.00071 504.127 96)"/><path d="M1391.17 268.981 1400.3 268.981 1400.3 310.329 1391.17 310.329Z" fill="#9D0A12" transform="matrix(1 0 0 1.00071 504.127 96)"/><path d="M1391.17 253.232 1400.3 253.232 1400.3 261.87 1391.17 261.87Z" fill="#9D0A12" transform="matrix(1 0 0 1.00071 504.127 96)"/><path d="M1426.84 256.591 1417.71 256.591 1417.71 268.618 1410.85 268.618 1410.85 274.51 1417.71 274.51 1417.71 300.178C1417.96 307.055 1419.55 310.744 1429.15 310.744 1431.16 310.744 1433.07 310.497 1435.07 310.26L1435.07 304.153C1433.8 304.461 1432.51 304.461 1431.23 304.461 1427.16 304.461 1426.84 302.549 1426.84 298.788L1426.84 274.51 1435.07 274.51 1435.07 268.618 1426.84 268.618 1426.84 256.591Z" fill="#9D0A12" transform="matrix(1 0 0 1.00071 504.127 96)"/><path d="M619.162 301.373C619.162 301.293 619.158 301.223 619.158 301.143L619.158 279.863C619.158 271.126 610.667 267.874 602.599 267.874 593.395 267.874 584.437 270.981 583.799 281.624L589.626 281.624C591.434 273.925 597.875 273.492 602.032 273.901 605.626 274.245 610.589 275.871 610.589 280.657 610.589 286.099 604.833 285.215 598.192 286.492 590.52 287.377 582.271 289.071 582.271 299.393 582.271 307.456 588.992 311.453 596.43 311.453 601.298 311.453 607.113 309.956 610.711 306.444L610.711 311.453 619.167 311.453 619.167 304.547 619.163 304.547 619.163 301.373ZM610.033 296.427C610.033 302.185 603.792 305.61 599.794 305.61 596.589 305.61 591.4 303.135 591.4 298.981 591.4 294.182 594.918 292.737 598.834 292.115 602.907 291.38 607.233 291.464 610.033 289.628L610.033 296.427Z" fill="#9D0A12" transform="matrix(1 0 0 1.00071 504.127 96)"/><path d="M822.506 301.373 822.506 301.143 822.506 279.863C822.506 271.126 814.031 267.874 805.959 267.874 796.75 267.874 787.8 270.981 787.149 281.624L792.983 281.624C794.796 273.925 801.233 273.492 805.389 273.901 808.972 274.245 813.956 275.871 813.956 280.657 813.956 286.099 808.194 285.215 801.549 286.492 793.885 287.377 785.645 289.071 785.645 299.393 785.645 307.456 792.349 311.453 799.78 311.453 804.665 311.453 810.476 309.956 814.071 306.444L814.071 311.453 822.522 311.453 822.522 304.547 822.505 304.547 822.505 301.373ZM813.387 296.427C813.387 302.185 807.143 305.61 803.143 305.61 799.949 305.61 794.753 303.135 794.753 298.981 794.753 294.182 798.278 292.737 802.192 292.115 806.266 291.38 810.599 291.464 813.387 289.628L813.387 296.427Z" fill="#9D0A12" transform="matrix(1 0 0 1.00071 504.127 96)"/><path d="M1464.4 299.857 1464.23 299.857 1451.86 268.981 1441.86 268.981 1459.12 310.181 1452.95 326.904 1461.19 326.904C1461.67 325.759 1482.82 268.981 1482.82 268.981L1475.24 268.981 1464.4 299.857Z" fill="#9D0A12" transform="matrix(1 0 0 1.00071 504.127 96)"/><path d="M199.359 0C89.4307 0 0 89.4349 0 199.357 0 309.283 89.4307 398.716 199.359 398.716 309.291 398.716 398.722 309.283 398.722 199.357 398.722 89.4349 309.291 0 199.359 0M199.359 392.311C92.9612 392.311 6.41262 305.754 6.41262 199.357 6.41262 92.9668 92.9612 6.41262 199.359 6.41262 305.756 6.41262 392.319 92.9668 392.319 199.357 392.319 305.754 305.756 392.311 199.359 392.311" fill="#9D0A12" transform="matrix(1 0 0 1.00071 504.127 96)"/><path d="M351.819 200.059 351.411 205.402 360.101 211.404 350.597 216.113 350.175 221.555 364.138 214.153 373.814 214.899 374.166 210.273 364.518 209.539Z" fill="#9D0A12" transform="matrix(1 0 0 1.00071 504.127 96)"/><path d="M353.665 223.778 349.858 222.935 345.921 240.824 349.729 241.668 351.207 234.984 369.911 239.097 370.904 234.555 352.2 230.441Z" fill="#9D0A12" transform="matrix(1 0 0 1.00071 504.127 96)"/><path d="M343.219 248.594 365.127 255.762 366.576 251.344 344.67 244.159Z" fill="#9D0A12" transform="matrix(1 0 0 1.00071 504.127 96)"/><path d="M356.783 259.732C355.459 259.138 354.212 258.916 353.06 259.066 351.904 259.22 350.843 259.677 349.878 260.435 348.906 261.182 347.725 262.481 346.305 264.331 344.89 266.179 343.838 267.265 343.143 267.608 342.6 267.867 342.08 267.883 341.579 267.658 341.036 267.41 340.707 266.998 340.582 266.397 340.389 265.472 340.568 264.394 341.129 263.158 341.659 261.965 342.302 261.175 343.039 260.786 343.783 260.402 344.738 260.36 345.9 260.668L347.621 256.336C345.658 255.537 343.81 255.544 342.048 256.353 340.291 257.172 338.825 258.9 337.635 261.535 336.908 263.158 336.53 264.645 336.504 266.005 336.471 267.368 336.791 268.559 337.455 269.596 338.116 270.616 338.976 271.374 340.045 271.852 341.71 272.593 343.405 272.593 345.145 271.817 346.386 271.267 347.792 269.981 349.387 267.96 350.618 266.392 351.432 265.394 351.828 264.974 352.417 264.366 352.947 263.991 353.427 263.853 353.904 263.721 354.392 263.763 354.893 263.991 355.665 264.339 356.187 264.991 356.458 265.947 356.721 266.904 356.545 268.063 355.932 269.431 355.347 270.723 354.562 271.593 353.569 272.063 352.583 272.533 351.335 272.585 349.833 272.204L348.38 276.512C350.852 277.298 353.032 277.248 354.901 276.38 356.766 275.504 358.299 273.731 359.502 271.077 360.321 269.256 360.751 267.621 360.792 266.165 360.828 264.707 360.47 263.404 359.723 262.269 358.97 261.116 357.99 260.277 356.783 259.732" fill="#9D0A12" transform="matrix(1 0 0 1.00071 504.127 96)"/><path d="M342.786 284.676C341.834 284.846 340.845 285.192 339.801 285.714 340.657 283.857 340.886 282.2 340.499 280.73 340.102 279.266 339.182 278.061 337.722 277.124 336.586 276.383 335.385 276 334.127 275.992 332.875 275.98 331.778 276.326 330.822 277.041 329.865 277.75 328.722 279.145 327.373 281.211L322.052 289.44 341.399 301.964 343.93 298.058 335.854 292.833 336.368 292.037C336.949 291.138 337.445 290.534 337.859 290.212 338.272 289.886 338.79 289.682 339.429 289.555 340.055 289.44 341.446 289.363 343.599 289.344L349.639 289.243 352.665 284.573 347.36 284.487C345.262 284.451 343.726 284.506 342.786 284.676M336.675 284.272C336.532 284.843 335.856 286.06 334.638 287.936L332.768 290.824 327.855 287.651 329.833 284.596C330.86 283.022 331.495 282.079 331.744 281.785 332.262 281.228 332.829 280.898 333.452 280.811 334.086 280.722 334.721 280.885 335.372 281.31 335.947 281.687 336.352 282.134 336.57 282.642 336.783 283.16 336.817 283.698 336.675 284.272" fill="#9D0A12" transform="matrix(1 0 0 1.00071 504.127 96)"/><path d="M324.921 315.597 320.229 311.421 327.916 302.772 325.011 300.195 317.327 308.847 313.507 305.451 321.768 296.154 318.854 293.564 307.501 306.336 324.728 321.651 336.382 308.55 333.477 305.97Z" fill="#9D0A12" transform="matrix(1 0 0 1.00071 504.127 96)"/><path d="M301.645 311.781 308.319 328.464 292.862 319.168 289.008 322.415 310.152 334.747 313.954 331.549 305.422 308.599Z" fill="#9D0A12" transform="matrix(1 0 0 1.00071 504.127 96)"/><path d="M279.452 332.413 302.512 332.413 302.512 337.071 279.452 337.071Z" fill="#9D0A12" transform="matrix(-0.560102 -0.828744 0.828154 -0.5605 680.823 859.718)"/><path d="M274.104 331.654 281.262 345.283 265.752 336.042 261.739 338.149 272.458 358.558 276.287 356.55 269.296 343.233 284.517 352.22 288.644 350.05 277.93 329.64Z" fill="#9D0A12" transform="matrix(1 0 0 1.00071 504.127 96)"/><path d="M256.513 340.374 252.108 341.863 256.18 353.946C256.766 355.682 257.118 356.935 257.24 357.724 257.36 358.51 257.191 359.268 256.727 359.99 256.263 360.716 255.408 361.295 254.159 361.71 252.929 362.131 251.865 362.183 250.971 361.886 250.077 361.584 249.385 361.027 248.895 360.191 248.593 359.669 248.136 358.471 247.504 356.592L243.507 344.762 239.094 346.252 243.033 357.903C243.853 360.35 244.628 362.152 245.331 363.304 245.816 364.076 246.498 364.749 247.383 365.31 248.268 365.865 249.333 366.203 250.577 366.318 251.817 366.439 253.483 366.148 255.561 365.442 257.293 364.862 258.619 364.165 259.542 363.36 260.463 362.559 261.118 361.674 261.511 360.717 261.899 359.752 262.033 358.693 261.909 357.527 261.775 356.362 261.266 354.472 260.381 351.846L256.513 340.374Z" fill="#9D0A12" transform="matrix(1 0 0 1.00071 504.127 96)"/><path d="M219.45 349.967 220.381 358.991 211.307 359.925 210.379 350.901 205.754 351.373 208.111 374.308 212.736 373.835 211.704 363.799 220.779 362.868 221.809 372.895 226.445 372.423 224.087 349.489Z" fill="#9D0A12" transform="matrix(1 0 0 1.00071 504.127 96)"/><path d="M187.012 356.222C188.146 355.057 189.561 354.516 191.265 354.607 192.501 354.676 193.529 355.074 194.358 355.81 195.185 356.551 195.7 357.524 195.906 358.733L200.569 357.882C200.14 356.011 199.431 354.558 198.44 353.511 196.769 351.759 194.529 350.805 191.718 350.652 188.491 350.476 185.835 351.399 183.735 353.416 181.648 355.427 180.5 358.35 180.296 362.174 180.098 365.806 180.925 368.708 182.783 370.902 184.638 373.098 187.097 374.273 190.148 374.441 192.619 374.571 194.691 374.076 196.363 372.945 198.039 371.807 199.288 370.005 200.112 367.522L195.684 365.851C195.21 367.517 194.5 368.719 193.57 369.463 192.632 370.196 191.55 370.532 190.317 370.461 188.646 370.372 187.319 369.688 186.34 368.394 185.354 367.103 184.945 364.999 185.101 362.09 185.25 359.34 185.882 357.392 187.012 356.222" fill="#9D0A12" transform="matrix(1 0 0 1.00071 504.127 96)"/><path d="M155.215 368.892 172.383 372.461 173.17 368.659 160.563 366.038 161.84 359.901 173.17 362.255 173.964 358.447 162.632 356.099 163.67 351.088 175.848 353.618 176.643 349.799 159.913 346.321Z" fill="#9D0A12" transform="matrix(1 0 0 1.00071 504.127 96)"/><path d="M139.003 339.121 137.677 342.795 144.114 345.115 137.612 363.132 141.996 364.709 148.493 346.698 154.913 349.013 156.236 345.338Z" fill="#9D0A12" transform="matrix(1 0 0 1.00071 504.127 96)"/><path d="M126.404 335.327 131.058 335.327 131.058 358.388 126.404 358.388Z" fill="#9D0A12" transform="matrix(-0.901952 -0.431836 0.431529 -0.902594 599.278 811.7)"/><path d="M96.7365 341.637 100.928 344.255 105.308 340.821 113.123 345.695 112.063 351.206 116.358 353.884 120.741 329.445 116.554 326.835 96.7365 341.637ZM113.919 341.61 108.58 338.278 115.755 332.677 113.919 341.61Z" fill="#9D0A12" transform="matrix(1 0 0 1.00071 504.127 96)"/><path d="M102.999 316.992 97.0445 323.852 90.1635 317.871 96.1148 311.02 92.5913 307.973 77.4831 325.388 81.0024 328.435 87.6063 320.817 94.4958 326.792 87.8891 334.41 91.4069 337.457 106.508 320.05Z" fill="#9D0A12" transform="matrix(1 0 0 1.00071 504.127 96)"/><path d="M74.3296 303.538 71.3448 306.028 74.7586 310.127 72.508 312C71.6374 311.805 70.7442 311.461 69.8201 310.948 68.9016 310.44 68.1308 309.805 67.5034 309.058 66.2389 307.547 65.7522 305.884 66.0251 304.068 66.298 302.261 67.4865 300.483 69.5936 298.733 71.5488 297.11 73.397 296.346 75.1552 296.442 76.9177 296.543 78.4466 297.379 79.752 298.933 80.6058 299.965 81.0727 301.034 81.136 302.147 81.2092 303.254 80.9096 304.298 80.2457 305.271L83.8634 308.271C85.1997 306.565 85.8172 304.708 85.706 302.703 85.6048 300.697 84.6328 298.595 82.8042 296.398 81.3977 294.703 79.9278 293.533 78.3904 292.888 76.3874 292.037 74.3465 291.813 72.2703 292.231 70.1886 292.657 68.2264 293.634 66.3852 295.165 64.6776 296.577 63.392 298.234 62.5241 300.129 61.6464 302.028 61.4087 303.986 61.773 306.011 62.1401 308.038 63.0966 309.975 64.6354 311.833 65.8507 313.291 67.3234 314.5 69.0647 315.462 70.7934 316.43 72.3322 316.981 73.6896 317.133L80.7506 311.253 74.3296 303.538Z" fill="#9D0A12" transform="matrix(1 0 0 1.00071 504.127 96)"/><path d="M70.28 279.975 56.999 287.763 65.5061 271.841 63.219 267.932 43.3298 279.591 45.5185 283.319 58.4872 275.717 50.2207 291.339 52.5795 295.363 72.4687 283.712Z" fill="#9D0A12" transform="matrix(1 0 0 1.00071 504.127 96)"/><path d="M56.4814 251.88 31.7368 251.905 33.5302 256.496 39.1059 256.37 42.4507 264.957 38.3154 268.735 40.151 273.453 58.2692 256.472 56.4814 251.88ZM45.5312 262.147 43.2426 256.287 52.3503 256.076 45.5312 262.147Z" fill="#9D0A12" transform="matrix(1 0 0 1.00071 504.127 96)"/><path d="M51.4796 235.825 42.6125 237.754 40.6869 228.844 49.547 226.916 48.5581 222.371 26.0331 227.259 27.0205 231.8 36.8694 229.663 38.8063 238.569 28.9489 240.712 29.9392 245.268 52.4628 240.374Z" fill="#9D0A12" transform="matrix(1 0 0 1.00071 504.127 96)"/><path d="M27.8574 217.9C29.0502 218.559 30.3049 218.853 31.6313 218.768 33.0857 218.678 34.2869 218.295 35.2392 217.624 36.183 216.949 36.9144 216.056 37.4194 214.935 37.9187 213.814 38.373 212.105 38.7655 209.808 39.1593 207.525 39.5813 206.069 40.0398 205.456 40.3943 204.966 40.8472 204.717 41.3902 204.675 41.9894 204.631 42.4746 204.856 42.8643 205.335 43.4635 206.052 43.8053 207.096 43.8897 208.445 43.9769 209.75 43.7757 210.747 43.2947 211.436 42.8164 212.112 41.9964 212.593 40.8275 212.868L41.317 217.511C43.4297 217.298 45.0656 216.428 46.2443 214.891 47.4216 213.358 47.9195 211.138 47.7381 208.256 47.6312 206.487 47.2725 204.984 46.6606 203.772 46.053 202.558 45.2119 201.652 44.1555 201.043 43.0865 200.447 41.9753 200.175 40.8036 200.254 38.9835 200.367 37.4799 201.167 36.304 202.662 35.4642 203.723 34.8158 205.516 34.3587 208.03 33.9915 209.999 33.7355 211.269 33.5794 211.823 33.3403 212.639 33.0491 213.213 32.6862 213.556 32.3233 213.899 31.8662 214.081 31.3275 214.119 30.4765 214.174 29.7155 213.839 29.0305 213.116 28.3511 212.399 27.9615 211.292 27.8771 209.798 27.7885 208.38 28.074 207.235 28.7323 206.364 29.3906 205.491 30.4708 204.872 31.9759 204.502L31.2543 200.008C28.6971 200.471 26.7954 201.527 25.5464 203.171 24.303 204.807 23.7685 207.087 23.9485 209.992 24.0667 211.992 24.4521 213.641 25.0935 214.943 25.7405 216.257 26.6632 217.237 27.8574 217.9" fill="#9D0A12" transform="matrix(1 0 0 1.00071 504.127 96)"/><path d="M142.605 222.163 145.815 222.163 145.815 243.348 142.605 243.348Z" fill="#9D0A12" transform="matrix(1 0 0 1.00071 504.127 96)"/><path d="M149.499 216.163 152.716 216.163 152.716 239.803 149.499 239.803Z" fill="#9D0A12" transform="matrix(1 0 0 1.00071 504.127 96)"/><path d="M163.281 208.158 166.495 208.158 166.495 233.611 163.281 233.611Z" fill="#9D0A12" transform="matrix(1 0 0 1.00071 504.127 96)"/><path d="M156.395 211.984 159.609 211.984 159.609 236.571 156.395 236.571Z" fill="#9D0A12" transform="matrix(1 0 0 1.00071 504.127 96)"/><path d="M170.186 205.336 173.395 205.336 173.395 231.666 170.186 231.666Z" fill="#9D0A12" transform="matrix(1 0 0 1.00071 504.127 96)"/><path d="M177.061 203.147 180.271 203.147 180.271 229.822 177.061 229.822Z" fill="#9D0A12" transform="matrix(1 0 0 1.00071 504.127 96)"/><path d="M135.703 228.747 138.917 228.747 138.917 247.777 135.703 247.777Z" fill="#9D0A12" transform="matrix(1 0 0 1.00071 504.127 96)"/><path d="M128.823 237.948 132.033 237.948 132.033 252.645 128.823 252.645Z" fill="#9D0A12" transform="matrix(1 0 0 1.00071 504.127 96)"/><path d="M121.917 247.614 125.131 247.614 125.131 258.215 121.917 258.215Z" fill="#9D0A12" transform="matrix(1 0 0 1.00071 504.127 96)"/><path d="M115.031 255.353 118.246 255.353 118.246 262.732 115.031 262.732Z" fill="#9D0A12" transform="matrix(1 0 0 1.00071 504.127 96)"/><path d="M108.14 261.069 111.349 261.069 111.349 266.454 108.14 266.454Z" fill="#9D0A12" transform="matrix(1 0 0 1.00071 504.127 96)"/><path d="M101.25 265.921 104.46 265.921 104.46 269.884 101.25 269.884Z" fill="#9D0A12" transform="matrix(1 0 0 1.00071 504.127 96)"/><path d="M252.912 222.163 256.122 222.163 256.122 243.348 252.912 243.348Z" fill="#9D0A12" transform="matrix(1 0 0 1.00071 504.127 96)"/><path d="M246.005 216.154 249.219 216.154 249.219 239.803 246.005 239.803Z" fill="#9D0A12" transform="matrix(1 0 0 1.00071 504.127 96)"/><path d="M232.234 208.158 235.444 208.158 235.444 233.611 232.234 233.611Z" fill="#9D0A12" transform="matrix(1 0 0 1.00071 504.127 96)"/><path d="M239.115 211.984 242.329 211.984 242.329 236.571 239.115 236.571Z" fill="#9D0A12" transform="matrix(1 0 0 1.00071 504.127 96)"/><path d="M225.325 205.336 228.535 205.336 228.535 231.666 225.325 231.666Z" fill="#9D0A12" transform="matrix(1 0 0 1.00071 504.127 96)"/><path d="M218.426 203.147 221.641 203.147 221.641 229.822 218.426 229.822Z" fill="#9D0A12" transform="matrix(1 0 0 1.00071 504.127 96)"/><path d="M259.795 228.753 263.009 228.753 263.009 247.783 259.795 247.783Z" fill="#9D0A12" transform="matrix(1 0 0 1.00071 504.127 96)"/><path d="M266.689 237.948 269.898 237.948 269.898 252.645 266.689 252.645Z" fill="#9D0A12" transform="matrix(1 0 0 1.00071 504.127 96)"/><path d="M273.588 247.614 276.798 247.614 276.798 258.215 273.588 258.215Z" fill="#9D0A12" transform="matrix(1 0 0 1.00071 504.127 96)"/><path d="M280.491 255.353 283.703 255.353 283.703 262.732 280.491 262.732Z" fill="#9D0A12" transform="matrix(1 0 0 1.00071 504.127 96)"/><path d="M287.367 261.069 290.577 261.069 290.577 266.454 287.367 266.454Z" fill="#9D0A12" transform="matrix(1 0 0 1.00071 504.127 96)"/><path d="M294.26 265.921 297.47 265.921 297.47 269.884 294.26 269.884Z" fill="#9D0A12" transform="matrix(1 0 0 1.00071 504.127 96)"/><path d="M177.978 307.437C179.095 306.429 179.85 305.649 180.283 305.114 180.923 304.284 181.393 303.511 181.69 302.759 181.984 302.009 182.134 301.229 182.134 300.404 182.134 298.943 181.613 297.729 180.582 296.764 179.541 295.781 178.126 295.3 176.311 295.3 174.667 295.3 173.281 295.712 172.187 296.556 171.086 297.407 170.42 298.79 170.221 300.724L173.722 301.064C173.786 300.05 174.04 299.317 174.474 298.877 174.912 298.427 175.495 298.217 176.225 298.217 176.961 298.217 177.55 298.421 177.97 298.851 178.394 299.272 178.603 299.857 178.603 300.65 178.603 301.359 178.362 302.074 177.875 302.807 177.521 303.326 176.546 304.332 174.964 305.81 172.994 307.62 171.672 309.096 171.007 310.205 170.339 311.312 169.942 312.48 169.809 313.711L182.134 313.711 182.134 310.447 175.152 310.447C175.332 310.131 175.571 309.81 175.871 309.475 176.166 309.141 176.868 308.473 177.978 307.437" fill="#9D0A12" transform="matrix(1 0 0 1.00071 504.127 96)"/><path d="M193.08 295.3C191.297 295.3 189.918 295.913 188.923 297.171 187.724 298.698 187.125 301.185 187.125 304.63 187.125 308.149 187.672 310.599 188.765 311.973 189.85 313.351 191.294 314.026 193.08 314.026 194.86 314.026 196.245 313.4 197.236 312.155 198.434 310.636 199.03 308.134 199.03 304.661 199.03 301.199 198.442 298.7 197.247 297.19 196.25 295.917 194.86 295.3 193.08 295.3M194.992 309.245C194.812 309.959 194.548 310.426 194.217 310.706 193.879 310.986 193.498 311.107 193.079 311.107 192.653 311.107 192.276 310.986 191.938 310.712 191.609 310.447 191.339 309.904 191.121 309.097 190.909 308.29 190.8 306.817 190.8 304.661 190.8 302.518 190.916 300.985 191.161 300.072 191.348 299.375 191.601 298.891 191.938 298.628 192.266 298.348 192.653 298.219 193.079 298.219 193.498 298.219 193.878 298.348 194.209 298.628 194.542 298.892 194.812 299.432 195.033 300.236 195.252 301.037 195.358 302.518 195.358 304.661 195.359 306.816 195.237 308.343 194.992 309.245" fill="#9D0A12" transform="matrix(1 0 0 1.00071 504.127 96)"/><path d="M206.414 298.226C205.332 299.064 204.342 299.632 203.412 299.932L203.412 303.129C205.162 302.547 206.678 301.673 207.955 300.466L207.955 313.711 211.479 313.711 211.479 295.298 208.629 295.298C208.225 296.424 207.49 297.39 206.414 298.226" fill="#9D0A12" transform="matrix(1 0 0 1.00071 504.127 96)"/><path d="M225.445 303.86C227.21 302.895 228.082 301.61 228.082 300.001 228.082 298.866 227.663 297.842 226.799 296.946 225.751 295.847 224.371 295.294 222.645 295.294 221.64 295.294 220.726 295.487 219.905 295.868 219.102 296.248 218.467 296.77 218.012 297.421 217.549 298.092 217.217 298.978 216.988 300.081L220.229 300.636C220.325 299.847 220.571 299.233 221.003 298.806 221.432 298.397 221.945 298.189 222.553 298.189 223.163 298.189 223.646 298.37 224.008 298.733 224.377 299.105 224.556 299.587 224.556 300.214 224.556 300.937 224.308 301.508 223.81 301.956 223.309 302.397 222.586 302.607 221.629 302.576L221.247 305.441C221.866 305.268 222.405 305.177 222.862 305.177 223.543 305.177 224.122 305.433 224.598 305.958 225.072 306.477 225.308 307.171 225.308 308.062 225.308 309.001 225.063 309.74 224.568 310.29 224.073 310.834 223.461 311.108 222.73 311.108 222.058 311.108 221.482 310.883 221.001 310.428 220.531 309.969 220.237 309.301 220.125 308.43L216.728 308.859C216.898 310.384 217.531 311.644 218.621 312.601 219.72 313.543 221.093 314.027 222.759 314.027 224.501 314.027 225.969 313.456 227.148 312.329 228.328 311.191 228.915 309.821 228.915 308.205 228.915 307.101 228.601 306.164 227.979 305.364 227.341 304.583 226.501 304.068 225.445 303.86" fill="#9D0A12" transform="matrix(1 0 0 1.00071 504.127 96)"/><path d="M228.796 283.828 224.487 283.828 224.487 282.116 220.171 282.116 220.171 280.387 211.031 280.387 214.563 261.338C214.632 261.203 214.674 261.061 214.674 260.903 214.674 260.727 214.628 260.56 214.538 260.417L210.263 241.29C210.263 241.281 210.268 241.281 210.268 241.273 210.268 241.21 210.242 241.169 210.232 241.106L212.397 228.366 214.764 228.366 214.764 201.513 211.55 201.513 211.55 211.813 209.512 202.067C209.521 202.012 209.543 201.972 209.543 201.924 209.543 201.87 209.5 201.841 209.491 201.794L212.466 182.488C212.483 182.407 212.508 182.338 212.508 182.258 212.508 182.178 212.47 182.112 212.452 182.037 212.444 182.012 212.439 181.988 212.429 181.961 212.413 181.912 212.417 181.845 212.389 181.795L208.76 162.417C208.76 162.409 208.747 162.409 208.747 162.4L211.328 143.339C211.383 143.214 211.418 143.081 211.418 142.94 211.418 142.781 211.379 142.622 211.304 142.488L207.976 123.37C207.98 123.334 208.002 123.304 208.002 123.266 208.002 123.237 207.976 123.221 207.976 123.204L210.351 103.722 210.404 102.644 201.146 102.644 200.279 83.4583 198.445 83.4583 197.572 102.644 188.264 102.644 190.755 123.169 187.361 142.773C187.353 142.805 187.366 142.84 187.366 142.872 187.361 142.94 187.339 142.998 187.347 143.069L189.948 162.441 186.297 181.978C186.288 181.995 186.288 182.019 186.284 182.036L186.274 182.077C186.27 182.095 186.278 182.111 186.278 182.136 186.266 182.224 186.244 182.312 186.261 182.403L189.245 201.896 187.19 211.76 187.19 201.509 183.98 201.509 183.98 228.362 186.299 228.362 188.471 241.186C188.467 241.205 188.463 241.235 188.463 241.26L184.123 260.696C184.109 260.748 184.123 260.812 184.123 260.869 184.123 260.938 184.105 261.004 184.115 261.071L187.692 280.382 178.535 280.382 178.535 282.11 174.227 282.11 174.227 283.822 169.915 283.822 169.915 285.748 228.795 285.748 228.795 283.828ZM199.327 223.795 207.684 240.311 191 240.311 199.327 223.795ZM199.34 184.589 206.987 200.964 191.727 200.964 199.34 184.589ZM205.581 122.307 193.152 122.307 199.361 106.27 205.581 122.307ZM199.336 145.434 206.286 161.639 192.388 161.639 199.336 145.434ZM199.352 262.937 208.803 280.387 189.895 280.387 199.352 262.937ZM200.922 259.951 203.696 254.44 208.92 244.104 212.467 259.951 200.922 259.951ZM200.87 220.638 208.159 204.984 211.429 220.638 200.87 220.638ZM200.793 181.299 202.337 177.694 207.445 165.87 210.345 181.299 200.793 181.299ZM200.751 141.981 206.629 126.84 209.272 141.981 200.751 141.981ZM192.068 126.842 195.988 136.927 197.946 141.982 189.444 141.982 192.068 126.842ZM191.26 165.879 193.27 170.562 197.883 181.299 188.371 181.299 191.26 165.879ZM190.57 204.968 197.853 220.638 187.304 220.638 190.57 204.968ZM189.79 244.147 197.757 259.951 186.264 259.951 189.79 244.147Z" fill="#9D0A12" transform="matrix(1 0 0 1.00071 504.127 96)"/><path d="M247.331 327.747C249.15 327.747 250.736 327.459 252.18 326.857 256.56 325.041 259.293 320.587 261.806 316.024 263.528 316.171 265.269 316.296 266.94 316.296 270.88 316.296 273.768 315.598 276.023 314.088 279.947 311.461 281.759 306.585 283.327 301.634 288.481 301.06 293.615 300.233 296.939 296.916 300.261 293.587 301.074 288.439 301.659 283.271 306.589 281.7 311.456 279.895 314.059 275.996 316.662 272.114 316.469 266.939 316.034 261.787 320.609 259.273 325.063 256.541 326.883 252.16 328.671 247.844 327.435 242.775 325.994 237.783 329.96 234.443 333.774 230.906 334.698 226.277 335.607 221.72 333.438 217.019 331.062 212.428 334.314 208.355 337.354 204.121 337.354 199.336 337.354 194.59 334.356 190.378 331.138 186.337 333.491 181.763 335.591 177.075 334.669 172.437 333.735 167.77 329.957 164.222 326 160.878 327.436 155.893 328.667 150.829 326.88 146.523 325.065 142.14 320.597 139.409 316.031 136.896 316.466 131.745 316.683 126.552 314.09 122.687 311.464 118.762 306.593 116.95 301.651 115.382 301.07 110.231 300.248 105.096 296.933 101.778 293.598 98.4553 288.443 97.6367 283.274 97.0572 281.701 92.1229 279.894 87.2519 275.999 84.6469 273.713 83.1235 270.793 82.409 266.812 82.409 265.176 82.409 263.48 82.53 261.796 82.6762 259.283 78.1175 256.551 73.66 252.174 71.8441 250.725 71.2463 249.14 70.951 247.325 70.951 244.275 70.951 241.014 71.8062 237.801 72.7331 234.455 68.7595 230.908 64.9448 226.27 64.0179 225.564 63.8801 224.831 63.8055 224.076 63.8055 220.218 63.8055 216.276 65.6622 212.424 67.6539 208.364 64.4146 204.131 61.3791 199.358 61.3791 194.608 61.3791 190.402 64.3681 186.36 67.5906 182.542 65.6214 178.626 63.8294 174.736 63.8294 173.944 63.8294 173.177 63.9054 172.436 64.0545 167.765 64.9814 164.216 68.7637 160.87 72.7247 157.674 71.7977 154.428 70.951 151.394 70.951 149.573 70.951 147.991 71.2463 146.542 71.8441 142.159 73.66 139.429 78.1259 136.91 82.6931 135.187 82.544 133.45 82.4132 131.774 82.4132 127.822 82.4132 124.943 83.1193 122.687 84.6258 118.766 87.2462 116.953 92.1186 115.386 97.0656 110.244 97.6409 105.108 98.4638 101.793 101.779 98.4638 105.11 97.6522 110.261 97.0698 115.429 92.1341 117.003 87.2561 118.81 84.6539 122.705 82.0588 126.595 82.243 131.762 82.6734 136.914 78.1091 139.419 73.6572 142.145 71.8512 146.524 70.0606 150.839 71.2913 155.917 72.7401 160.905 68.7595 164.253 64.942 167.792 64.0151 172.425 63.1092 176.981 65.2754 181.684 67.6497 186.273 64.4033 190.338 61.3693 194.563 61.3693 199.337 61.3693 204.088 64.3709 208.294 67.5934 212.341 65.2304 216.921 63.1219 221.616 64.0488 226.259 64.9772 230.929 68.7595 234.476 72.7233 237.831 71.2829 242.806 70.0592 247.861 71.8469 252.161 73.6572 256.543 78.1175 259.274 82.6889 261.788 82.2444 266.947 82.0278 272.132 84.623 276.013 87.2491 279.933 92.1229 281.749 97.0712 283.317 97.6493 288.465 98.4736 293.601 101.783 296.916 105.111 300.234 110.262 301.058 115.43 301.638 117.008 306.575 118.811 311.452 122.71 314.055 124.998 315.58 127.918 316.295 131.9 316.295 133.538 316.295 135.239 316.168 136.92 316.029 139.432 320.589 142.162 325.039 146.537 326.85 147.99 327.457 149.576 327.746 151.392 327.746 154.435 327.746 157.696 326.895 160.903 325.965 164.255 329.943 167.796 333.767 172.435 334.69 173.139 334.833 173.881 334.901 174.629 334.901 178.491 334.901 182.442 333.044 186.294 331.05 190.36 334.297 194.587 337.327 199.361 337.327 204.101 337.327 208.301 334.335 212.346 331.116 216.163 333.091 220.077 334.885 223.973 334.883 224.764 334.883 225.533 334.811 226.269 334.66 230.944 333.732 234.497 329.943 237.844 325.979 241.046 326.904 244.293 327.747 247.331 327.747M226.289 320.293C225.307 320.293 224.36 320.386 223.487 320.555 219.395 321.368 215.62 324.36 211.972 327.305 207.814 325.129 203.522 322.921 199.347 322.921 195.105 322.929 190.823 325.074 186.666 327.242 183.037 324.316 179.293 321.354 175.238 320.555 174.362 320.388 173.411 320.293 172.425 320.293 169.079 320.293 165.506 321.288 162.02 322.308 159.038 318.725 155.926 315.102 152.08 313.502 150.115 312.684 147.814 312.304 144.833 312.304 142.847 312.304 140.77 312.48 138.736 312.658 136.503 308.568 134.17 304.42 130.708 302.103 127.228 299.774 122.497 299.175 117.859 298.674 116.457 294.213 114.952 289.672 111.985 286.707 109.03 283.764 104.483 282.273 100.028 280.882 99.5215 276.228 98.9392 271.481 96.6 267.99 94.2918 264.536 90.1494 262.204 86.0647 259.973 86.474 255.312 86.8158 250.548 85.2011 246.64 83.6187 242.807 79.9728 239.703 76.3902 236.706 77.704 232.222 78.9727 227.612 78.1442 223.464 77.3411 219.374 74.3422 215.604 71.4053 211.961 73.5841 207.802 75.7952 203.51 75.791 199.336 75.7868 195.095 73.6319 190.807 71.4658 186.647 74.383 183.023 77.3481 179.275 78.147 175.225 78.9671 171.093 77.7138 166.492 76.4015 162.016 79.9883 159.028 83.6088 155.923 85.2081 152.074 86.8229 148.182 86.4656 143.396 86.0492 138.716 90.141 136.496 94.2918 134.154 96.6085 130.703 98.9335 127.22 99.5243 122.495 100.032 117.862 104.491 116.451 109.04 114.957 111.998 111.984 114.952 109.029 116.436 104.487 117.824 100.025 122.474 99.5243 127.226 98.9307 130.717 96.5972 134.176 94.2834 136.503 90.1382 138.73 86.0605 140.734 86.2363 142.774 86.4079 144.739 86.4079 147.745 86.4079 150.066 86.0239 152.059 85.2011 155.897 83.6201 159 79.9714 161.988 76.3846 165.479 77.4114 169.067 78.4059 172.426 78.4059 173.416 78.4059 174.363 78.3215 175.239 78.1513 179.321 77.3411 183.091 74.3436 186.733 71.4095 190.893 73.5799 195.185 75.7924 199.364 75.7924 203.607 75.7882 207.892 73.6347 212.053 71.463 215.679 74.3901 219.423 77.3453 223.481 78.1513 224.355 78.3215 225.305 78.4059 226.287 78.4059 229.639 78.4059 233.205 77.4212 236.685 76.3972 239.671 79.9798 242.774 83.6032 246.626 85.2011 248.59 86.0197 250.895 86.4009 253.87 86.4009 255.866 86.4009 257.948 86.2251 259.978 86.045 262.216 90.1354 264.553 94.2848 268.008 96.5986 271.492 98.9223 276.214 99.5201 280.847 100.026 282.25 104.488 283.752 109.03 286.722 112.002 289.682 114.946 294.234 116.427 298.691 117.821 299.196 122.473 299.784 127.214 302.122 130.704 304.436 134.152 308.567 136.484 312.653 138.709 312.239 143.376 311.898 148.151 313.512 152.059 315.095 155.895 318.743 158.996 322.329 161.989 321.014 166.476 319.763 171.077 320.576 175.217 321.386 179.302 324.38 183.074 327.318 186.719 325.135 190.879 322.922 195.181 322.927 199.362 322.931 203.605 325.08 207.89 327.25 212.047 324.333 215.667 321.378 219.406 320.576 223.464 319.763 227.597 321.015 232.198 322.325 236.673 318.735 239.662 315.112 242.775 313.508 246.624 311.889 250.514 312.251 255.302 312.657 259.972 308.571 262.203 304.434 264.541 302.126 267.997 299.792 271.478 299.2 276.203 298.698 280.846 294.232 282.244 289.682 283.749 286.71 286.722 283.767 289.673 282.285 294.22 280.889 298.673 276.246 299.172 271.503 299.766 268.012 302.102 264.553 304.417 262.22 308.564 259.989 312.649 257.987 312.473 255.935 312.303 253.966 312.303 250.968 312.303 248.639 312.682 246.652 313.505 242.822 315.09 239.714 318.731 236.725 322.313 233.236 321.296 229.655 320.293 226.289 320.293M250.954 323.893C249.902 324.328 248.714 324.541 247.332 324.541 245.102 324.541 242.671 323.994 240.104 323.288 242.642 320.293 245.102 317.624 247.877 316.48 249.465 315.82 251.402 315.515 253.967 315.515 255.357 315.515 256.821 315.611 258.288 315.732 256.194 319.423 254.019 322.621 250.954 323.893M274.238 311.421C272.534 312.561 270.218 313.092 266.94 313.092 265.832 313.092 264.669 313.026 263.49 312.938 265.337 309.627 267.299 306.447 269.798 304.773 272.333 303.078 276.039 302.471 279.822 302.029 278.494 306.039 276.98 309.579 274.238 311.421M294.665 294.643C292.349 296.961 288.583 297.744 284.389 298.272 285.552 294.649 286.855 291.135 288.988 288.991 291.142 286.832 294.665 285.513 298.296 284.34 297.771 288.55 296.985 292.328 294.665 294.643M311.394 274.212C309.579 276.933 306.052 278.441 302.047 279.767 302.495 275.997 303.099 272.299 304.794 269.786 306.465 267.281 309.632 265.327 312.951 263.484 313.249 267.673 313.201 271.506 311.394 274.212M323.914 250.935C322.641 254.004 319.434 256.181 315.737 258.279 315.432 254.46 315.303 250.686 316.472 247.864 317.636 245.068 320.386 242.521 323.301 240.056 324.427 244.138 325.162 247.929 323.914 250.935M331.543 225.654C330.905 228.891 328.208 231.641 325.01 234.405 323.98 230.745 323.14 227.1 323.728 224.091 324.309 221.155 326.43 218.229 328.858 215.182 330.747 218.935 332.179 222.487 331.543 225.654M329.44 209.297C327.691 205.885 326.142 202.454 326.138 199.361 326.134 196.327 327.682 192.992 329.507 189.473 332.016 192.722 334.145 196.044 334.145 199.341 334.145 202.679 331.974 206.02 329.44 209.297M331.519 173.066C332.158 176.289 330.739 179.937 328.927 183.596 326.473 180.511 324.319 177.559 323.73 174.599 323.138 171.581 323.982 167.934 325.015 164.271 328.125 166.977 330.872 169.816 331.519 173.066M323.91 147.753C325.155 150.755 324.427 154.541 323.304 158.616 320.307 156.082 317.636 153.615 316.479 150.835 315.306 147.981 315.427 144.224 315.732 140.412 319.43 142.511 322.635 144.69 323.91 147.753M311.421 124.477C313.224 127.165 313.249 131.002 312.944 135.209 309.63 133.368 306.461 131.416 304.796 128.919 303.097 126.389 302.486 122.682 302.044 118.892 306.056 120.221 309.592 121.731 311.421 124.477M298.287 114.326C294.661 113.17 291.138 111.863 288.997 109.725 286.839 107.571 285.523 104.052 284.345 100.425 288.558 100.951 292.34 101.731 294.661 104.056 296.976 106.37 297.761 110.14 298.287 114.326M274.219 87.318C276.94 89.1339 278.443 92.67 279.773 96.6718 276.006 96.2301 272.318 95.621 269.796 93.9303 267.296 92.2593 265.334 89.0804 263.491 85.7609 264.629 85.6849 265.747 85.6259 266.815 85.6259 270.132 85.6273 272.484 86.166 274.219 87.318M250.945 74.8162C254.01 76.0836 256.19 79.2822 258.28 82.9674 256.782 83.0898 255.288 83.1939 253.873 83.1939 251.333 83.1939 249.42 82.8929 247.859 82.2458 245.074 81.0812 242.519 78.3383 240.063 75.4281 242.642 74.715 245.085 74.1678 247.328 74.1678 248.71 74.1678 249.898 74.383 250.945 74.8162M225.649 67.1686C228.888 67.8199 231.641 70.5121 234.406 73.7093 230.693 74.753 226.931 75.5674 224.107 74.9991 221.166 74.4238 218.241 72.2942 215.191 69.8651 218.984 67.9915 222.596 66.5765 225.649 67.1686M209.297 69.2813C205.886 71.0297 202.45 72.5798 199.357 72.5882 196.327 72.5882 192.999 71.0424 189.491 69.2307 192.743 66.7185 196.057 64.5932 199.361 64.5932 202.69 64.5932 206.025 66.7509 209.297 69.2813M173.063 67.2024C176.18 66.5877 179.898 68.0028 183.597 69.8144 180.523 72.2689 177.579 74.4182 174.615 74.9991 171.781 75.5674 168.004 74.7445 164.271 73.7008 166.973 70.5993 169.811 67.8494 173.063 67.2024M147.77 74.8162C148.822 74.3816 150.012 74.1678 151.396 74.1678 153.623 74.1678 156.055 74.7122 158.611 75.4211 156.082 78.4185 153.615 81.0896 150.832 82.243 149.246 82.8943 147.309 83.2037 144.74 83.2037 143.362 83.2037 141.898 83.1039 140.432 82.9871 142.528 79.2864 144.707 76.085 147.77 74.8162M124.477 87.2969C126.173 86.1604 128.494 85.6301 131.777 85.6301 132.883 85.6301 134.045 85.6891 135.226 85.7735 133.384 89.0875 131.426 92.2593 128.929 93.9303 126.389 95.6295 122.681 96.2343 118.892 96.676 120.222 92.67 121.73 89.1297 124.477 87.2969M104.07 104.058C106.383 101.741 110.143 100.96 114.333 100.43 113.171 104.058 111.866 107.581 109.729 109.719 107.576 111.877 104.063 113.196 100.439 114.365 100.962 110.16 101.748 106.379 104.07 104.058M87.3264 124.495C89.1423 121.772 92.6785 120.27 96.6774 118.944 96.2371 122.709 95.6267 126.399 93.9374 128.921 92.2621 131.416 89.0818 133.378 85.7637 135.221 85.4669 131.032 85.5119 127.204 87.3264 124.495M74.8148 147.762C76.0892 144.694 79.285 142.517 82.9801 140.424 83.2867 144.24 83.4231 148.021 82.2458 150.851 81.0924 153.638 78.344 156.186 75.4352 158.649 74.3057 154.558 73.57 150.765 74.8148 147.762M67.1701 173.058C67.8171 169.814 70.5191 167.054 73.7191 164.296 74.753 167.949 75.5927 171.594 74.9977 174.602 74.4126 177.541 72.2928 180.466 69.8608 183.523 67.969 179.771 66.5385 176.223 67.1701 173.058M69.2785 189.406C71.0185 192.817 72.5784 196.251 72.5826 199.344 72.5826 202.375 71.0396 205.693 69.2223 209.218 66.7143 205.965 64.5847 202.655 64.5847 199.341 64.5847 196.009 66.7481 192.678 69.2785 189.406M67.201 225.63C66.554 222.408 67.9859 218.759 69.8046 215.095 72.2563 218.174 74.4126 221.122 74.9977 224.087 75.5927 227.106 74.7445 230.774 73.7036 234.438 70.5993 231.729 67.8466 228.891 67.201 225.63M74.8148 250.935C73.57 247.929 74.3 244.165 75.4225 240.091 78.4199 242.619 81.091 245.092 82.2346 247.871 83.4119 250.717 83.2909 254.475 82.9885 258.277 79.2892 256.178 76.0822 253.998 74.8148 250.935M87.2912 274.228C85.4922 271.536 85.4669 267.69 85.7735 263.483 89.0861 265.318 92.2579 267.279 93.9345 269.777 95.6281 272.316 96.2399 276.03 96.6788 279.816 92.6743 278.487 89.1311 276.971 87.2912 274.228M100.432 284.379C104.058 285.544 107.574 286.852 109.721 288.979 111.87 291.135 113.192 294.649 114.362 298.272 110.162 297.75 106.383 296.964 104.059 294.643 101.748 292.333 100.953 288.567 100.432 284.379M124.497 311.387C121.772 309.571 120.27 306.035 118.937 302.028 122.71 302.469 126.399 303.077 128.922 304.772 131.426 306.444 133.389 309.629 135.235 312.948 134.097 313.026 132.973 313.086 131.9 313.086 128.584 313.085 126.227 312.553 124.497 311.387M147.766 323.884C144.711 322.621 142.531 319.426 140.44 315.742 141.936 315.624 143.429 315.517 144.833 315.517 147.375 315.517 149.289 315.822 150.848 316.465 153.634 317.627 156.187 320.379 158.64 323.281 156.073 323.987 153.627 324.537 151.392 324.537 150.004 324.536 148.818 324.328 147.766 323.884M173.059 331.542C169.82 330.891 167.067 328.198 164.298 324.996 168.025 323.966 171.795 323.147 174.616 323.707 177.553 324.287 180.482 326.408 183.53 328.841 179.732 330.727 176.109 332.13 173.059 331.542M189.422 329.429C192.827 327.685 196.269 326.135 199.357 326.132 202.391 326.132 205.709 327.677 209.217 329.492 205.969 331.995 202.661 334.122 199.361 334.122 196.03 334.122 192.698 331.958 189.422 329.429M225.644 331.517C222.544 332.13 218.821 330.718 215.108 328.905 218.188 326.449 221.138 324.295 224.106 323.707 226.934 323.147 230.716 323.972 234.45 325.013 231.743 328.118 228.903 330.868 225.644 331.517" fill="#9D0A12" transform="matrix(1 0 0 1.00071 504.127 96)"/><path d="M130.532 141.539 119.333 141.539 120.805 140.644 118.211 136.433 116.171 137.686 118.553 141.539 108.545 141.539 108.545 143.939 130.532 143.939Z" fill="#9D0A12" transform="matrix(1 0 0 1.00071 504.127 96)"/><path d="M132.052 158.407 123.32 158.407 127.587 146.998 125.05 146.936 120.709 158.407 117.116 158.407 117.076 158.214 118.104 157.747 113.718 147.006 111.026 147.006 115.796 158.407 106.862 158.407 106.862 160.787 132.052 160.787Z" fill="#9D0A12" transform="matrix(1 0 0 1.00071 504.127 96)"/><path d="M106.004 189.551 108.065 190.741 111.665 184.576 109.598 183.386Z" fill="#9D0A12" transform="matrix(1 0 0 1.00071 504.127 96)"/><path d="M120.986 187.482 123.034 186.266 119.764 180.79 117.716 182.018Z" fill="#9D0A12" transform="matrix(1 0 0 1.00071 504.127 96)"/><path d="M125.84 183.895 130.956 190.249 132.82 188.755 127.708 182.392Z" fill="#9D0A12" transform="matrix(1 0 0 1.00071 504.127 96)"/><path d="M129.48 177.826 120.684 177.826 120.684 174.044 131.593 174.044 131.593 171.639 120.684 171.639 120.684 167.431 118.294 167.431 118.294 171.639 106.864 171.639 106.864 174.044 118.294 174.044 118.294 177.826 109.498 177.826 109.498 180.221 129.48 180.221Z" fill="#9D0A12" transform="matrix(1 0 0 1.00071 504.127 96)"/><path d="M123.494 190.332 116.63 190.332C116.173 190.232 115.942 189.969 115.887 189.484L115.887 183.645 113.493 183.645 113.493 190.896C113.493 191.308 113.617 192.67 115.164 192.72L125.135 192.72 125.135 192.694 125.224 192.694C126.614 192.56 127.988 189.906 128.243 189.371L125.598 188.198C125.187 189.084 124.502 190.141 123.494 190.332" fill="#9D0A12" transform="matrix(1 0 0 1.00071 504.127 96)"/><path d="M164.582 189.965 164.604 189.893 164.604 175.905 172.218 175.905 172.218 173.65 164.604 173.65 164.604 167.354 162.219 167.354 162.219 173.65 148.935 173.65 148.935 175.905 161.348 175.905 161.242 176.062C158.279 180.489 154.007 184.308 148.935 187.012L148.935 189.94C150.507 189.229 156.847 186.079 162.032 179.316L162.22 179.085 162.216 188.211C162.036 189.132 160.934 189.605 160.123 189.947L159.887 190.063 161.264 192.985C161.792 192.725 164.455 191.367 164.582 189.965" fill="#9D0A12" transform="matrix(1 0 0 1.00071 504.127 96)"/><path d="M248.793 194.089 251.049 194.089 251.049 168.918 228.034 168.918 228.034 194.089 230.292 194.089 230.292 192.495 248.793 192.495 248.793 194.089ZM230.292 171.165 248.793 171.165 248.793 190.246 230.292 190.246 230.292 171.165Z" fill="#9D0A12" transform="matrix(1 0 0 1.00071 504.127 96)"/><path d="M242.459 183.452 244.228 185.574 240.722 185.574 240.722 181.191 246.093 181.191 246.093 178.936 240.722 178.936 240.722 175.73 246.664 175.73 246.664 173.484 232.546 173.484 232.546 175.73 238.467 175.73 238.467 178.936 233.11 178.936 233.11 181.191 238.467 181.191 238.467 185.574 232.037 185.574 232.037 187.828 247.161 187.828 247.161 185.569 244.201 182.009Z" fill="#9D0A12" transform="matrix(1 0 0 1.00071 504.127 96)"/><path d="M291.238 141.23 287.576 137.233 285.915 138.762 289.572 142.77Z" fill="#9D0A12" transform="matrix(1 0 0 1.00071 504.127 96)"/><path d="M279.279 137.464 281.532 137.464 281.532 142.887 279.279 142.887Z" fill="#9D0A12" transform="matrix(0.802405 0.59678 -0.596355 0.802976 643.05 -43.6553)"/><path d="M275.148 141.512 272.275 136.913 270.364 138.12 273.238 142.711Z" fill="#9D0A12" transform="matrix(1 0 0 1.00071 504.127 96)"/><path d="M266.473 152.288 267.902 154.391C268.326 154.086 269.479 153.214 270.863 151.783L271.038 151.599 271.038 162.407 273.304 162.407 273.304 152.309 275.692 155.211 277.501 153.858 274.932 150.744 277.256 148.516 275.688 146.908 273.577 148.911 273.456 148.957 273.342 148.807 273.389 148.745C274.218 147.545 274.944 146.312 275.519 145.058L275.512 145.058 275.556 144.963C275.948 144.082 276.222 143.121 276.311 142.78L267.105 142.78 267.105 145.026 272.7 145.026 272.614 145.175C270.341 149.374 267.05 151.862 266.473 152.288" fill="#9D0A12" transform="matrix(1 0 0 1.00071 504.127 96)"/><path d="M276.464 151.531 278.064 153.522C278.234 153.413 278.691 153.096 279.338 152.52L279.509 152.378 279.509 162.404 281.766 162.404 281.766 161.051 287.012 161.051 287.012 162.404 289.27 162.404 289.27 151.825 289.437 151.956C290.012 152.402 290.619 152.816 291.186 153.146L292.709 151.101C291.198 150.206 287.671 147.752 285.455 142.944 285.455 142.944 285.66 142.351 285.729 142.158L283.054 142.092C280.82 148.23 277.189 151.01 276.464 151.531M287.012 158.791 281.766 158.791 281.766 153.273 287.012 153.273 287.012 158.791ZM280.965 150.851C282.129 149.49 283.179 147.912 284.074 146.151L284.147 145.996 284.248 146.151C285.331 147.945 286.621 149.516 288.085 150.842L288.291 151.022 280.82 151.022 280.965 150.851Z" fill="#9D0A12" transform="matrix(1 0 0 1.00071 504.127 96)"/><path d="M231.61 150.292 227.104 151.915 227.104 154.395 231.679 152.671 231.679 157.696 231.67 157.898 231.662 157.898C231.549 158.678 230.832 159.38 229.524 159.984L230.7 162.563C231.23 162.304 233.87 160.948 233.922 159.593L233.931 159.493 233.999 151.786 237.014 150.725 237.014 148.237 233.932 149.406 233.932 145.285 237.014 145.285 237.014 143.027 233.932 143.027 233.932 136.762 231.679 136.762 231.679 143.027 227.019 143.027 227.019 145.285 231.679 145.285 231.61 150.292Z" fill="#9D0A12" transform="matrix(1 0 0 1.00071 504.127 96)"/><path d="M240.508 149.198 240.551 149.09 240.73 149.09 240.751 149.174C240.85 149.507 241.771 152.579 244.096 155.882L244.145 155.954 244.096 156.011C243.072 157.155 242.069 158.075 241.342 158.735L241.196 158.819 241.196 162.15C242.838 161.089 244.438 159.723 245.825 158.193L245.898 158.109 245.972 158.193C247.705 160.045 249.651 161.441 251.767 162.359L251.828 159.441C250.275 158.668 248.835 157.575 247.553 156.182L247.489 156.114 247.543 156.044C248.998 153.968 250.023 151.689 250.597 149.285L250.651 149.064 250.655 149.064C250.763 148.651 250.992 147.694 251.104 146.839L249.545 146.839 249.545 146.847 240.508 146.847 240.508 140.469 247.681 140.469 247.681 141.521 247.673 141.713 247.66 141.713C247.558 142.494 246.844 143.2 245.526 143.818L246.701 146.368C247.227 146.122 249.788 144.795 249.907 143.459L249.94 143.384 249.94 138.211 238.249 138.211 238.249 162.306 240.505 162.306 240.505 149.198ZM248.03 149.09 247.987 149.227C247.556 150.784 246.825 152.308 245.842 153.773L245.756 153.899 245.663 153.773C244.418 151.854 243.722 150.108 243.422 149.227L243.381 149.09 248.03 149.09Z" fill="#9D0A12" transform="matrix(1 0 0 1.00071 504.127 96)"/><path d="M287.593 190.374C287.201 190.374 286.711 190.014 286.132 189.606L285.974 189.484C284.316 188.169 283.051 186.024 282.21 183.081L282.171 182.952 289.171 182.952 289.171 180.688 281.64 180.688 281.628 180.605C281.39 179.228 281.278 178.075 281.235 177.332L281.235 177.232 289.171 177.232 289.171 169.368 269.571 169.36 269.571 190.374 269.587 190.374 269.596 190.474C269.675 191.83 272.26 193.145 272.79 193.404L273.932 190.913C273.103 190.532 271.825 189.74 271.825 188.588L271.825 182.953 279.525 182.953 279.538 183.028C280.574 187.126 282.333 190.087 284.766 191.806L284.821 191.869C286.039 192.67 287.091 193.092 287.98 193.092 290.527 193.092 290.928 189.606 290.986 188.938L288.273 188.938C288.257 189.589 288.161 190.374 287.593 190.374M271.823 180.688 271.823 177.232 278.682 177.232 278.687 177.324C278.722 178.043 278.806 179.185 279.037 180.563L279.051 180.688 271.823 180.688ZM271.823 171.623 286.924 171.623 286.924 174.971 271.823 174.971 271.823 171.623Z" fill="#9D0A12" transform="matrix(1 0 0 1.00071 504.127 96)"/><path d="M152.226 149.49 152.226 149.391 156.595 149.391 156.595 155.81 156.656 155.81 156.608 155.944C156.419 156.578 155.848 157.054 153.65 157.404L153.948 159.549C156.166 159.224 158.441 158.515 158.791 155.9L158.858 155.826 158.867 155.274 158.858 155.274 158.858 147.139 152.225 147.139 152.225 143.669 161.283 143.669 161.287 143.76C161.638 147.684 162.352 151.108 163.385 154.038 162.091 155.657 160.68 157.052 159.252 158.128L159.252 161.334C161.085 160.14 162.852 158.57 164.501 156.701L164.599 156.592 164.667 156.717C165.77 158.73 167.834 161.66 170.481 161.66 170.942 161.66 171.412 161.611 171.904 161.503L171.904 158.747C170.923 159.04 168.737 159.365 166.374 154.347 167.941 152.177 169.319 149.739 170.477 147.084L167.707 147.026C167.014 148.513 166.243 149.897 165.378 151.254L165.253 151.451 165.192 151.226C164.555 149.029 164.094 146.517 163.824 143.774L163.815 143.67 171.155 143.67 171.155 141.391 168.467 136.758 165.635 136.758 168.375 141.408 163.653 141.408 163.649 141.321C163.559 139.667 163.546 138.065 163.607 136.703L161.075 136.703C161.043 137.413 161.013 139.072 161.11 141.311L161.119 141.407 149.582 141.407 149.582 143.536 149.573 143.621 149.573 149.724C149.573 152.187 149.257 158.131 146.407 160.609L149.056 162.096C149.474 161.579 152.226 157.813 152.226 149.49" fill="#9D0A12" transform="matrix(1 0 0 1.00071 504.127 96)"/><path d="M77.3678 110.043 77.3734 110.036 77.3678 110.043 77.3608 110.036 77.3608 110.051 73.4772 112.949 73.9836 116.422 68.9775 125.863 53.8216 117.841 60.7631 104.733 59.2819 103.941 59.2707 103.941 55.3632 106.854 55.8892 110.34 52.3292 117.048 39.3998 110.21 37.1549 114.447 66.734 130.109 59.3466 144.039 60.8334 144.836 78.8742 110.828Z" fill="#9D0A12" transform="matrix(1 0 0 1.00071 504.127 96)"/><path d="M162.981 45.8378 163.319 47.4961 176.228 44.8644 178.594 56.4828 183.296 55.5109 180.929 43.9051 186.724 42.7278 186.387 41.0512 180.587 42.2355 175.872 19.1563 171.166 20.1296 175.884 43.2004Z" fill="#9D0A12" transform="matrix(1 0 0 1.00071 504.127 96)"/><path d="M171.65 30.4849C173.31 26.6196 163.508 25.9768 163.508 25.9768L163.054 26.9333C167.512 29.4511 167.576 30.5777 169.081 31.2571 170.183 31.7494 171.287 31.357 171.65 30.4849" fill="#9D0A12" transform="matrix(1 0 0 1.00071 504.127 96)"/><path d="M173.324 40.1158C175.37 36.4671 165.689 34.7989 165.689 34.7989L165.141 35.7076C169.313 38.6755 169.24 39.7853 170.672 40.6376 171.724 41.2467 172.862 40.9499 173.324 40.1158" fill="#9D0A12" transform="matrix(1 0 0 1.00071 504.127 96)"/><path d="M152.177 30.468 153.238 35.6611 146.539 37.0255 146.885 38.6966 152.547 37.5361C152.45 38.9751 151.759 48.1882 149.247 54.0874L150.465 54.7091C150.465 54.7091 153.449 50.2249 155.117 44.8658L158.335 60.6069 163.037 59.6505 159.14 40.5448C161.864 42.7194 161.989 43.659 163.222 44.3848 164.269 44.9812 165.412 44.7069 165.872 43.8629 167.627 40.7248 160.73 39.0707 158.754 38.6628L158.284 36.3574 163.982 35.1928 163.658 33.5358 157.951 34.7004 156.691 28.5255C158.691 27.5536 160.529 26.4719 161.704 25.3621L157.031 23.0075C157.031 23.0075 152.63 27.7941 145.371 31.2726L145.653 32.6918C145.653 32.6933 148.669 31.8254 152.177 30.468" fill="#9D0A12" transform="matrix(1 0 0 1.00071 504.127 96)"/><path d="M341.785 104.883C342.247 104.632 342.962 104.115 343.563 103.647L357.589 128.811 351.988 130.438 352.901 132.061 360.253 133.585 360.262 133.602 360.278 133.599 360.325 133.602 361.731 132.834 361.409 127.95 358.215 126.476 358.215 126.484 355.986 122.498C357.568 122.988 360.758 123.86 365.044 124.351L363.841 118.516C363.841 118.516 357.702 120.194 354.575 119.959L348.857 109.691C349.065 109.849 349.303 109.965 349.562 110.024 354.029 111.013 352.635 99.6143 352.635 99.6143L351.511 99.3429C349.892 104.731 348.493 105.559 348.114 107.37 348.055 107.704 348.055 108.026 348.102 108.327L344.871 102.533C345.459 101.918 346.123 101.139 346.123 101.139L345.505 100.055 345.259 100.15C341.517 101.411 339.769 100.029 337.565 101.256 336.514 101.854 335.683 103.273 336.426 104.591 337.459 106.462 339.492 106.166 341.785 104.883" fill="#9D0A12" transform="matrix(1 0 0 1.00071 504.127 96)"/><path d="M354.433 116.247C358.697 117.115 357.579 106.391 357.579 106.391L356.519 106.135C354.891 111.212 353.472 112.092 353.103 113.767 352.822 114.994 353.461 116.046 354.433 116.247" fill="#9D0A12" transform="matrix(1 0 0 1.00071 504.127 96)"/><path d="M325.146 126.437C329.5 132.334 333.853 129.973 333.853 129.973L340.302 126.39 347.358 139.055 348.813 138.225 348.822 138.246 348.822 138.225 348.822 138.215 348.493 133.395 345.329 131.942 341.772 125.569 344.01 124.324 350.705 127.287 352.179 126.465 342.222 108.602 340.752 109.425 348.096 122.608 341.7 120.166 341.683 120.129 339.441 121.383 330.875 106.03 329.405 106.843 337.971 122.208 331.526 125.791C330.854 126.166 330.546 125.715 330.007 124.756 329.518 123.879 327.508 119.629 327.073 118.737L325.858 119.42C328.481 125.629 325.146 126.437 325.146 126.437" fill="#9D0A12" transform="matrix(1 0 0 1.00071 504.127 96)"/><path d="M242.054 37.8779 235.783 36.3293 235.372 37.9651 236.099 38.1452C236.081 42.9205 237.169 46.9321 238.709 50.2545 232.219 54.1985 226.345 55.2338 226.345 55.2338L225.99 56.7205C231.534 57.3676 236.551 56.0524 240.817 54.0326 244.659 59.8178 249.461 62.5804 249.461 62.5804 250.901 59.943 253.047 59.7883 253.555 59.7883L253.842 58.6166C249.757 56.8049 246.764 54.4503 244.525 51.9958 250.773 48.0672 254.633 43.1878 254.928 42.8122L254.96 42.8207 255.357 41.1679 246.711 39.0299 248.02 33.699 258.919 36.4038 259.326 34.7595 259.348 34.7553 255.553 31.6875 252.316 33.0266 248.431 32.0617 250.295 24.5069 245.635 23.3549 243.771 30.9097 237.489 29.3568 237.086 30.9969 243.37 32.5498 242.054 37.8779ZM241.695 48.2557C238.913 43.7349 238.315 39.6319 238.215 38.6726L248.738 41.2776C246.601 44.1218 244.165 46.4229 241.695 48.2557" fill="#9D0A12" transform="matrix(1 0 0 1.00071 504.127 96)"/><path d="M219.422 55.11 220.678 55.4194 220.673 55.4279 225.333 56.5757 229.562 39.435C231.695 38.871 233.319 38.3618 234.251 38.0537L234.673 36.2955C233.165 36.5262 231.659 36.6922 230.203 36.8258L231.956 29.7338 236.046 30.7451 236.443 29.1219 232.352 28.1106 234.22 20.539 229.564 19.3954 227.697 26.9586 222.321 25.628 221.918 27.2596 227.301 28.5832 225.193 37.131C221.152 37.2773 218.298 37.1437 218.298 37.1437L218.623 41.6645C220.678 41.3648 222.577 41.0174 224.321 40.663L222.141 49.5048 222.204 49.1531C221.866 50.5105 221.648 50.969 219.033 50.3389 217.856 50.0435 216.776 49.675 216.776 49.675L216.53 50.706C219.796 52.1998 219.422 55.11 219.422 55.11" fill="#9D0A12" transform="matrix(1 0 0 1.00071 504.127 96)"/><path d="M87.6542 64.0292C87.8426 59.8586 78.4284 62.707 78.4284 62.707L78.358 63.7844C83.4049 64.5482 83.862 65.5736 85.5077 65.6833 86.7131 65.7325 87.6105 64.9941 87.6542 64.0292" fill="#9D0A12" transform="matrix(1 0 0 1.00071 504.127 96)"/><path d="M81.0798 71.1732 80.994 72.2422C86.0549 73.0144 86.5036 74.0286 88.1436 74.1566 89.3589 74.2072 90.2521 73.4434 90.2816 72.4841 90.4743 68.3052 81.0798 71.1732 81.0798 71.1732" fill="#9D0A12" transform="matrix(1 0 0 1.00071 504.127 96)"/><path d="M124.12 64.9266 123.075 63.6198 120.408 65.7241 115.901 60.0049 118.565 57.9063 117.517 56.5757 114.853 58.6701 109.285 51.5992 106.455 53.8455 95.1034 62.7857C95.0795 61.5873 95.0204 60.2975 94.8755 58.9472L109.999 47.0376 108.947 45.6929 104.186 46.7746 103.253 50.1687 103.301 50.1476 94.6181 57.0004C94.3832 55.4855 94.0555 53.9369 93.5857 52.3981L88.6852 54.5938C88.6852 54.5938 92.829 61.9193 93.3072 69.8791L94.635 69.8932C94.635 69.8932 94.8109 68.8819 94.9487 67.2418L98.4202 71.6374 95.4101 74.0089 96.458 75.3479 99.4723 72.9694 103.968 78.6844 103.959 78.6886 105.003 80.0037 105.007 79.9995 105.563 80.7042 109.32 77.7377 108.768 77.0316 117.681 70.0114C118.658 71.3054 119.031 72.2985 117.488 73.5039 115.44 75.1229 111.876 77.9248 111.876 77.9248L112.542 78.7561C112.542 78.7561 117.509 75.4576 119.297 77.7223 119.297 77.7223 125.716 72.5531 121.435 67.0477L124.12 64.9266ZM97.6423 62.932 106.556 55.8977 111.086 61.6464 109.128 63.1866C109.137 63.1374 109.161 63.0952 109.168 63.0488 109.352 58.8543 99.9505 61.742 99.9505 61.742L99.8689 62.7843C104.93 63.5579 105.374 64.596 107.019 64.6888 107.109 64.6931 107.169 64.6677 107.255 64.6677L102.173 68.6751 97.6423 62.932ZM114.734 70.1942C114.738 70.1731 114.751 70.1492 114.751 70.1239 114.926 65.9618 105.536 68.8256 105.536 68.8256L105.453 69.8594C110.515 70.6373 110.96 71.6669 112.617 71.7668 112.669 71.771 112.703 71.7499 112.759 71.7499L107.728 75.7151 103.228 70.0043 112.144 62.97 116.603 68.6231 116.586 68.6273C116.603 68.6484 116.616 68.6723 116.635 68.6934L114.734 70.1942Z" fill="#9D0A12" transform="matrix(1 0 0 1.00071 504.127 96)"/><path d="M89.4743 82.146 90.4209 83.3472C90.4209 83.3472 94.0654 81.6269 99.0362 87.9439 100.648 89.9764 101.854 91.4674 101.854 91.4674L104.342 89.508C104.342 89.508 98.4736 81.8773 96.5972 79.2526 94.8516 76.8066 90.3562 63.0642 89.6515 60.8742L88.3307 61.9291C89.4194 65.4695 92.6827 76.2889 92.4984 78.735 92.3254 81.0305 89.4743 82.146 89.4743 82.146" fill="#9D0A12" transform="matrix(1 0 0 1.00071 504.127 96)"/><path d="M317.982 75.6588 315.829 71.2857 312.327 71.1465 312.352 71.1887 304.821 65.1783C308.975 61.3665 311.667 57.6264 312.422 56.525L307.961 52.9734C305.581 56.5968 303.133 59.5182 300.697 61.8897L288.763 52.3672 287.72 53.6781 299.445 63.0417C288.901 72.5207 278.687 71.8863 273.939 70.8806L272.719 72.4208C285.24 78.0978 296.061 72.622 303.27 66.5427 293.723 80.0178 299.099 93.4633 299.099 93.4633 302.502 91.2353 305.114 94.1399 305.114 94.1399L305.973 93.0456C299.144 82.1924 304.244 68.7764 304.829 67.3459L316.927 77.0007 317.975 75.6813 317.908 75.6307 317.982 75.6588Z" fill="#9D0A12" transform="matrix(1 0 0 1.00071 504.127 96)"/></g></svg>